<svg xmlns="http://www.w3.org/2000/svg" version="1.1" xmlns:xlink="http://www.w3.org/1999/xlink" xmlns:svgjs="http://svgjs.dev/svgjs" width="1000" height="1000"><g clip-path="url(#SvgjsClipPath1019)"><rect width="1000" height="1000" fill="#ffffff"></rect><g transform="matrix(0.7,0,0,0.7,150,150)"><svg xmlns="http://www.w3.org/2000/svg" version="1.1" xmlns:xlink="http://www.w3.org/1999/xlink" xmlns:svgjs="http://svgjs.dev/svgjs" width="1000" height="1000"><svg xmlns="http://www.w3.org/2000/svg" version="1.1" xmlns:xlink="http://www.w3.org/1999/xlink" xmlns:svgjs="http://svgjs.dev/svgjs" width="1000" height="1000"><g clip-path="url(#SvgjsClipPath1204)"><rect width="1000" height="1000" fill="#ffffff"></rect><g transform="matrix(1.5625,0,0,1.5625,100,100)"><svg xmlns="http://www.w3.org/2000/svg" version="1.1" xmlns:xlink="http://www.w3.org/1999/xlink" xmlns:svgjs="http://svgjs.dev/svgjs" width="512" height="512"><svg version="1.1" xmlns="http://www.w3.org/2000/svg" width="512" height="512">
<path d="M0 0 C1.83027878 -0.00597315 1.83027878 -0.00597315 3.69753289 -0.01206696 C5.05349188 -0.0063609 6.4094501 -0.00046971 7.76540756 0.00558662 C9.20429108 0.0047147 10.64317429 0.00296395 12.08205581 0.00040829 C16.04080662 -0.00407175 19.99944956 0.00394744 23.95818663 0.01396441 C28.22536819 0.02258717 32.49254348 0.01967959 36.75973129 0.01815987 C44.15452393 0.01711027 51.54928132 0.02339467 58.94406509 0.03463554 C69.6357264 0.05087747 80.32737063 0.05609721 91.01904294 0.05861153 C108.36482568 0.06299068 125.71058962 0.07630577 143.05636215 0.09521675 C159.90792369 0.11356984 176.75948014 0.12772914 193.61104965 0.13623238 C195.168685 0.13702055 195.168685 0.13702055 196.75778773 0.13782464 C201.96716196 0.14043468 207.17653622 0.14296211 212.38591051 0.14544845 C255.61494126 0.16618782 298.84395152 0.20141936 342.07296371 0.24609566 C342.06900416 1.00166187 342.0650446 1.75722809 342.06096506 2.53569025 C341.82762034 47.45475524 341.67893368 92.37343084 341.63810071 137.2931039 C341.63311052 142.70329782 341.62742282 148.11349079 341.62130356 153.52368355 C341.62009721 154.60062047 341.61889085 155.67755738 341.61764795 156.78712875 C341.59653289 174.15688536 341.51909263 191.52594761 341.42032439 208.89541649 C341.32002641 226.75779322 341.28144466 244.61955933 341.29851484 262.4822126 C341.30712735 273.47854615 341.26930452 284.47260553 341.16939569 295.46849728 C341.10524813 303.03947062 341.10179283 310.60906065 341.14311147 318.18018442 C341.16514907 322.52999807 341.16328436 326.87572569 341.0883007 331.22504044 C340.70087657 355.06869017 345.30752243 372.15280626 357.17258358 392.88213074 C359.77505827 397.48891092 362.09579075 402.21447811 364.40499496 406.97265816 C365.15932401 408.47912437 365.91578754 409.98452602 366.67550278 411.48828316 C372.92677998 423.88350155 379.12388263 436.29542982 385.05221176 448.849123 C389.61450766 458.4737903 394.41321516 467.98023284 399.21261215 477.48828316 C399.52783829 478.11450569 399.84306442 478.74072823 400.16784286 479.3859272 C401.02929487 481.09696699 401.89309599 482.8068235 402.75704575 484.51660347 C405.46162071 490.12646396 406.44332406 496.29886205 404.35421371 502.31640816 C401.71340547 507.23597836 398.3568564 510.48479809 393.07296371 512.24609566 C390.65499496 512.51953316 390.65499496 512.51953316 387.88546371 512.62109566 C386.98440903 512.67008003 386.08335434 512.71906441 385.15499496 512.76953316 C379.82931412 511.8650449 375.75666828 509.54684651 372.53609848 505.145998 C371.05192981 502.55968742 369.73483684 499.93603553 368.44796371 497.24609566 C367.95288315 496.25585396 367.45780258 495.26561226 366.94771957 494.24536324 C365.29724601 490.92419159 363.68315305 487.58697102 362.07296371 484.24609566 C361.4646862 482.99498548 360.85578484 481.74417845 360.24630356 480.49365425 C356.71083742 473.23692975 353.20619922 465.96633861 349.73531723 458.6784687 C347.55655301 454.17982776 345.31645983 449.71273075 343.07296371 445.24609566 C343.06709747 445.86504204 343.06123123 446.48398842 343.05518723 447.12169075 C342.99098537 453.59517433 342.90649781 460.06817303 342.81051254 466.54126167 C342.77736896 468.9533058 342.74930453 471.3654255 342.72652817 473.7775898 C342.692788 477.255699 342.6404611 480.7331221 342.58468246 484.21093941 C342.57829254 485.28005058 342.57190262 486.34916176 342.56531906 487.45067024 C342.41525189 495.18655488 341.69965371 502.08059746 336.63546371 508.18359566 C331.46257933 512.34713675 327.55114112 512.68228503 320.98702621 512.56250191 C315.73681351 511.9924386 313.17495387 509.46721988 309.76046371 505.68359566 C307.32989066 502.17276791 306.941064 499.4797832 306.86764145 495.31567574 C306.84769623 494.31486473 306.82775101 493.31405373 306.80720139 492.28291512 C306.78213264 490.66560745 306.78213264 490.66560745 306.75655746 489.01562691 C306.73577637 487.9100695 306.71499527 486.8045121 306.69358444 485.66545296 C306.62814039 482.12989775 306.56922768 478.59426759 306.51046371 475.05859566 C306.46727362 472.66340558 306.42365917 470.26822311 306.37960434 467.87304878 C306.27246424 461.99747724 306.17068815 456.12183094 306.07296371 450.24609566 C305.56958481 451.37402534 305.0662059 452.50195503 304.54757309 453.66406441 C302.6426106 457.92998763 300.73294056 462.19379068 298.82198715 466.45703316 C298.00238276 468.28720528 297.18398261 470.11791727 296.36690903 471.94922066 C293.63774341 478.06469743 290.87607387 484.16414546 288.07296371 490.24609566 C287.52793198 491.43453072 287.52793198 491.43453072 286.9718895 492.64697456 C285.95016653 494.85548604 284.90678058 497.05214639 283.85421371 499.24609566 C283.41232712 500.2064875 283.41232712 500.2064875 282.96151352 501.1862812 C280.45819455 506.29631934 277.19080531 509.68717486 272.07296371 512.24609566 C266.51765124 512.75339216 261.65466136 513.00869988 256.57296371 510.55859566 C252.58047681 506.86554527 249.45543456 503.7044107 248.83701706 498.11265755 C248.63555667 491.33140323 250.14794677 486.46726012 253.00655746 480.37500191 C253.4131308 479.46956139 253.81970413 478.56412086 254.23859787 477.63124275 C255.50077913 474.82864269 256.78665522 472.03768641 258.07296371 469.24609566 C258.83068839 467.56339699 259.58614102 465.87967297 260.339077 464.19482613 C262.1961804 460.04623213 264.07283052 455.90688191 265.95718002 451.77060127 C268.02596092 447.22844573 270.08668846 442.68264018 272.14718246 438.13672066 C272.56276413 437.22001091 272.97834579 436.30330116 273.40652084 435.35881233 C278.05979962 425.0838189 282.64034235 414.77680503 287.20602036 404.46264839 C287.61577417 403.54143967 287.61577417 403.54143967 288.03380585 402.60162067 C288.63313521 401.243243 289.22489386 399.88148332 289.80676079 398.5155344 C291.75865576 393.990617 293.91100049 389.65344697 296.26493454 385.32327461 C306.46185059 365.82664726 307.932863 348.93297909 307.593014 327.19894576 C307.53880431 322.82017917 307.56031094 318.44169305 307.57276535 314.06270027 C307.58521978 305.82161745 307.53251323 297.58238127 307.45459384 289.34171087 C307.36899007 279.9385519 307.35876451 270.53574216 307.35392821 261.13224924 C307.34236415 241.83611565 307.23920246 222.54148718 307.07296371 203.24609566 C306.41296371 203.06047066 305.75296371 202.87484566 305.07296371 202.68359566 C298.06450602 199.32537634 292.59454397 192.91532583 287.15732956 187.45744514 C286.51008201 186.81175758 285.86283445 186.16607002 285.19597334 185.50081617 C283.05111976 183.359917 280.90981756 181.21550257 278.76852036 179.07104683 C277.22239119 177.52627409 275.67604967 175.98171387 274.12951279 174.43734932 C269.94796376 170.26034357 265.76956513 166.08019983 261.59187627 161.89933372 C257.21764087 157.52256138 252.84096036 153.14823521 248.46467209 148.7735157 C241.12356301 141.43422327 233.78455938 134.09283042 226.44674301 126.75024605 C218.89578049 119.19443381 211.34242748 111.64102358 203.78658676 104.0900898 C195.54907871 95.85791012 187.3132283 87.62407791 179.07986349 79.38775426 C174.72425523 75.03058473 170.36796871 70.67409911 166.00993156 66.31935883 C161.91927997 62.23158619 157.83106383 58.14139366 153.74475098 54.04928398 C152.24152232 52.54472838 150.73743336 51.04103177 149.23244286 49.53823853 C147.18588684 47.49439626 145.142406 45.44752935 143.09971237 43.39982796 C142.49720329 42.7995496 141.89469421 42.19927123 141.27392727 41.58080262 C137.18711458 37.47439738 137.18711458 37.47439738 136.07296371 35.24609566 C107.69296371 34.91609566 79.31296371 34.58609566 50.07296371 34.24609566 C50.07296371 83.74609566 50.07296371 133.24609566 50.07296371 184.24609566 C58.51549361 188.19113273 58.51549361 188.19113273 67.07296371 191.87109566 C87.79478216 202.49430638 102.12432393 229.10340082 109.07296371 250.24609566 C114.93487916 269.03494254 117.96897331 288.32133333 119.82296371 307.87109566 C119.88808151 308.54796425 119.95319931 309.22483284 120.02029037 309.9222126 C122.43243297 335.43346998 122.43243297 335.43346998 118.07296371 341.24609566 C112.55696118 345.49801428 107.99507919 346.91358536 101.07296371 346.24609566 C94.86670474 344.89988507 91.6203937 342.46290446 88.07296371 337.24609566 C85.90408831 332.88321703 85.5360059 328.49787315 85.14327621 323.71093941 C84.9886992 322.00623451 84.83373703 320.3015645 84.67843246 318.59692574 C84.60028305 317.71163185 84.52213364 316.82633797 84.44161606 315.914217 C82.92916626 298.14525688 82.92916626 298.14525688 80.07296371 280.55859566 C79.93132797 279.86951118 79.78969223 279.18042671 79.6437645 278.47046089 C78.65633683 274.0713787 77.33521972 269.78693017 76.00265121 265.48120308 C75.64155258 264.31288445 75.28045395 263.14456581 74.90841293 261.94084358 C74.63271469 261.05157677 74.35701645 260.16230995 74.07296371 259.24609566 C74.05750252 260.73614113 74.05750252 260.73614113 74.04172897 262.25628853 C73.94400266 271.61457119 73.84126925 280.97278725 73.73362446 290.33096123 C73.67844351 295.14216779 73.6250312 299.95338049 73.57564926 304.76465034 C73.52793454 309.40716255 73.47558911 314.0496015 73.42002296 318.69202614 C73.39963163 320.46383275 73.38091326 322.23565943 73.36388969 324.0075016 C73.33977435 326.48782289 73.30972958 328.9680064 73.27828598 331.44824409 C73.27253052 332.18192207 73.26677505 332.91560005 73.26084518 333.6715107 C73.21230865 337.03641072 72.92214942 340.00361798 72.07296371 343.24609566 C71.81832531 348.03040636 71.85377074 352.82288926 71.85421371 357.61328316 C71.85316383 358.69601824 71.85316383 358.69601824 71.85209274 359.80062675 C71.86577584 377.23602076 73.08332328 394.56340126 74.39077377 411.94128609 C74.87820585 418.44201341 75.34766103 424.94403145 75.81205368 431.44643974 C75.97300931 433.66826286 76.14127566 435.88943214 76.31063461 438.11062813 C76.81357876 444.8675875 77.20631632 451.62647238 77.32882309 458.40185738 C77.35375839 459.57561928 77.3786937 460.74938118 77.40438461 461.95871162 C76.92140238 466.7494417 75.23442754 470.01631043 71.94796371 473.49609566 C66.67813464 476.7038177 61.48572715 477.76374348 55.38546371 476.68359566 C50.99747958 475.46598749 48.18055373 473.64964663 45.07296371 470.24609566 C42.38942774 464.27560575 41.50440109 458.9915258 41.12374496 452.49609566 C41.06140167 451.5973774 40.99905838 450.69865913 40.9348259 449.77270699 C40.74031037 446.93113189 40.56262057 444.08880032 40.38546371 441.24609566 C40.25571931 439.30721864 40.12487072 437.36841518 39.99288559 435.42968941 C39.6734744 430.70257924 39.36913739 425.9747163 39.07296371 421.24609566 C37.50723534 431.3302557 36.527876 441.33137818 35.94991684 451.51562691 C35.51554663 457.86291049 35.04144246 462.99159161 30.57296371 467.89062691 C24.51669279 472.60631703 19.54324125 472.82485461 12.07296371 472.24609566 C7.21885505 470.62805944 3.4107802 467.87968878 1.07296371 463.24609566 C-0.43294282 455.60151242 0.12559324 447.82690658 0.78390121 440.12109566 C0.87545486 438.98929878 0.96700851 437.85750191 1.06133652 436.69140816 C1.71156087 429.16242584 2.65517207 421.71428133 3.79952621 414.24609566 C11.03673253 366.09434739 9.76133349 317.81440768 9.07296371 269.24609566 C8.11650473 271.59634938 7.16399063 273.94808069 6.21358871 276.30078316 C5.94626938 276.95651314 5.67895004 277.61224312 5.40353012 278.2878437 C-1.27550973 294.86289214 -3.280017 310.88500189 -2.76102066 328.66797066 C-2.63540004 336.30916973 -3.16150666 341.15311181 -7.48953629 347.55859566 C-11.81721626 350.55468179 -16.9151372 351.50062234 -22.14578629 351.05859566 C-27.28566615 349.95154461 -31.95054699 347.89825382 -35.14969254 343.60547066 C-44.44789814 328.27509582 -38.97621493 302.5011291 -35.04788589 285.98217964 C-28.86789919 261.23998083 -17.24175463 238.27636089 -2.92703629 217.24609566 C-4.16711441 217.11203316 -5.40719254 216.97797066 -6.68484879 216.83984566 C-15.92412077 215.66918559 -22.84804803 210.12682026 -28.92703629 203.24609566 C-35.50687709 192.53225387 -37.1477938 182.61733281 -35.92703629 170.24609566 C-33.3366986 159.61758005 -26.70237055 151.56433633 -17.92703629 145.24609566 C-7.44631427 139.82250524 3.96849509 138.256413 15.51046371 141.43359566 C22.07571545 143.75331794 26.8833985 146.66000871 31.07296371 152.24609566 C31.40296371 113.30609566 31.73296371 74.36609566 32.07296371 34.24609566 C19.53296371 34.24609566 6.99296371 34.24609566 -5.92703629 34.24609566 C-12.62193181 30.42044107 -15.44865106 28.33377997 -17.49344254 21.29687691 C-18.46842792 16.07300783 -17.50831029 11.86469703 -14.92703629 7.24609566 C-10.37063665 1.8718807 -6.99797635 -0.00503452 0 0 Z M185.07296371 34.24609566 C188.72808131 38.51039952 192.21532353 42.51367402 196.15360641 46.453722 C196.62763592 46.9293115 197.10166542 47.40490099 197.59005946 47.89490229 C199.15598644 49.46477172 200.72540753 51.03109738 202.29488754 52.59741402 C203.42734724 53.73123065 204.5595945 54.86525949 205.69164658 55.99948311 C208.74884957 59.06122253 211.80917988 62.11981768 214.8702414 65.17769885 C218.07568432 68.38060225 221.278678 71.58595347 224.48206711 74.79091072 C229.85423809 80.16489717 235.22850606 85.53677974 240.60396957 90.90747261 C246.82598271 97.12402769 253.04436276 103.34419949 259.26090032 109.56622976 C264.60013241 114.90999093 269.94129951 120.25181214 275.28410739 125.59199816 C278.47480796 128.78113696 281.66482236 131.97095422 284.8530941 135.16252136 C287.84429625 138.1565998 290.83791027 141.14824509 293.83345032 144.13798332 C294.93528637 145.23849117 296.03626134 146.33986187 297.13633537 147.44213104 C298.63101458 148.939519 300.12870086 150.43383051 301.62723923 151.92735481 C302.46657407 152.76631263 303.30590891 153.60527044 304.17067814 154.46965122 C305.76097894 156.35984883 305.76097894 156.35984883 307.07296371 156.24609566 C307.07296371 115.98609566 307.07296371 75.72609566 307.07296371 34.24609566 C266.81296371 34.24609566 226.55296371 34.24609566 185.07296371 34.24609566 Z " fill="#000000" transform="translate(72.92703628540039,-0.2460956573486328)"></path>
</svg></svg></g></g><defs><clipPath id="SvgjsClipPath1204"><rect width="1000" height="1000" x="0" y="0" rx="250" ry="250"></rect></clipPath><clipPath id="SvgjsClipPath1019"><rect width="1000" height="1000" x="0" y="0" rx="350" ry="350"></rect></clipPath></defs></svg></svg></g></g></svg>